<?xml version="1.0" encoding="utf-8"?>
<!-- Generator: Adobe Illustrator 19.2.1, SVG Export Plug-In . SVG Version: 6.00 Build 0)  -->
<svg version="1.1" id="Layer_1" xmlns="http://www.w3.org/2000/svg" xmlns:xlink="http://www.w3.org/1999/xlink" x="0px" y="0px"
	 viewBox="0 0 100 100" style="enable-background:new 0 0 100 100;" xml:space="preserve">
<style type="text/css">
	.st0{fill:#2ABEC9;}
	.st1{fill:#FFFFFF;}
</style>
<rect class="st0" width="100" height="100"/>
<g>
	<g>
		<g>
			<g>
				<path class="st1" d="M6.1,39.7c0.5-2.1,2.1-3.3,3.9-1.8c0.7,0.6,1.5,1.3,2.3,2c3.8,2.9,8.8,5.1,13.8,5.8
					c-1.3-6.2,5.2-15.1,12.7-14.4c2.8,0.3,5.2,2,5.7,5c0.8,6.5-6.7,9.6-12.3,10.9c0.3,0.5,1.1,1.2,2,1.5c1.3,0.5,2.7,0.7,2.7,1
					c0.1,0.6-1.7,1.2-3,2.7c-1.6,1.8-2,5.1-1.1,7.8c1.9,5.9,9.4,3.6,12-1.1c1-0.2,1,0.8,0.8,1.1c-10.8,18.9-27.7,2-15.2-9.4
					c-1.4-0.6-2.4-1.3-3.1-2.3c-4.9,1.1-10.9,0.6-15.7-1.1C8.1,46.1,5.1,44.2,6.1,39.7z M37.1,37.8c-2.9,1.6-5.9,5-5.5,7.9
					c6.9-0.8,9.8-5,9.9-6.7C41.6,37.3,40.1,36.2,37.1,37.8z"/>
				<path class="st1" d="M52.3,46.5c-2-0.2-5.8,12.5-2.9,13c3.9,0.6,8.1-10.5,8.3-10.2c0.3,0,0.6,0.2,0.5,0.7
					c-0.8,1.9-3.6,7.8-6,9.9c-3.7,3.2-7.1,1.6-8-2.9c-1-5.7,3-13.5,7.1-12.7c2.5,0.5,2.4,3.9,1.8,3.8c-0.1,0-0.2-0.1-0.3-0.1
					C52.8,47.5,52.8,46.6,52.3,46.5z"/>
				<path class="st1" d="M64.8,32.6c-0.7-0.6-1.9-0.8-2.8-0.8c-1.8,0-3.6,1.4-4.3,3.8l-0.4,1.4c-1,3.8-2.7,14.4-2.2,20
					c0.1,1.4,0.5,2.9,1.5,3.9c0.6,0.6,1.2,0.6,1.9,0.1c0.8-0.6,1.4-1.6,2-2.9c1.3-2.4,2.7-5.3,3.5-7.2c0.1-0.4-0.5-0.5-0.8-0.4
					c-1,2-2.5,5-3.6,6.9c-0.7,1.1-1.3,1.8-1.4-0.6c-0.2-5.3,1.2-14.7,2.5-18.8c-0.1-0.1-0.2-0.3-0.2-0.4c-0.1-0.6,0.2-1.2,0.7-1.5
					c0.5-1.8,2-2.3,2.6-1.6c0.2,0.3,0.3,0.5,0.4,0.7c0.1,0.1,0.2,0.3,0.2,0.5c0,0.4-0.1,1.1-0.3,1.8c0,0,0,0,0,0
					C66.1,36.7,66,33.6,64.8,32.6z"/>
				<path class="st1" d="M65.6,53.2c-0.7,3-0.9,6.1,0.5,6.3c3.9,0.6,8.1-10.5,8.3-10.2c0.3,0,0.6,0.2,0.5,0.7
					c-0.8,1.9-3.6,7.8-6,9.9c-3.7,3.2-7.1,1.6-8-2.9c-1-5.6,3-13.2,7.1-12.7c2.6,0.3,3.9,3.4,2.6,5.9C69.6,51.8,67.6,52.7,65.6,53.2
					z M66.8,39.9c1-1.4,3.4-5.4,4.9-3.4c1.3,1.6-2,3.8-3.6,5.1c-1.2,1-2.3,1.7-2.7,1.3C65.2,42.5,65.9,41.2,66.8,39.9z M70.2,48.2
					c0.1-0.9-0.3-1.4-1.2-1.6c-0.9-0.2-2.3,2.6-3.1,5.6C67.8,51.6,70.1,50.6,70.2,48.2z"/>
			</g>
			<path class="st1" d="M63.4,34.1c0,0,4.2,0.9-4.7,12.4l-0.5,2.1c0,0,14.4-17.4,3.5-16.8L63.4,34.1z"/>
			<path class="st1" d="M58.6,33.7c0,0-1.3,1.4-2.2,7.3l3.4,1.1c0,0,1.3-6,2-7.2c0.7-1.1,1.4-1.1,1.4-1.1L58.6,33.7z"/>
		</g>
		<path class="st1" d="M74.1,63.7c0.1,0.2,0.1,0.4,0.2,0.7c0.1,0.3,0.1,0.6,0,0.9c-0.1,0.3-0.3,0.6-0.6,0.8
			c-0.3,0.2-0.9,0.4-1.6,0.5c-1.2-0.3-2.5-0.5-4-0.7c-1.5-0.1-3-0.2-4.7-0.3c-1.6,0-3.3,0-4.9,0.1c-1.7,0.1-3.3,0.2-4.9,0.3
			c-1.6,0.1-3,0.3-4.4,0.5c-1.4,0.2-2.6,0.4-3.6,0.7c-0.6,0.1-1.1,0.1-1.4,0c-0.3-0.1-0.5-0.4-0.5-0.6c0-0.3,0.2-0.6,0.5-0.9
			c0.3-0.3,0.8-0.5,1.4-0.6c1.5-0.3,3.1-0.6,4.9-0.9c1.8-0.3,3.7-0.5,5.6-0.7c1.9-0.2,3.8-0.3,5.7-0.4c1.9-0.1,3.7-0.1,5.3-0.1
			c1.6,0,3,0.1,4.2,0.2C72.7,63.3,73.6,63.4,74.1,63.7z M46.9,66.4c1-0.2,2.2-0.4,3.5-0.6c1.3-0.2,2.7-0.3,4.1-0.4
			c1.4-0.1,2.9-0.2,4.4-0.3c1.5-0.1,2.9-0.1,4.2-0.1c1.3,0,2.5,0,3.6,0.1c1.1,0.1,2,0.2,2.6,0.3c-0.4-0.2-1.1-0.4-2.1-0.5
			c-1-0.1-2.1-0.2-3.4-0.2c-1.3,0-2.8,0-4.3,0.1c-1.5,0.1-3.1,0.2-4.6,0.3c-1.5,0.1-3,0.3-4.4,0.5C49.1,65.8,47.9,66.1,46.9,66.4z
			 M62.6,64.4c-0.2,0-0.7,0-1.5,0c-0.8,0-1.5,0.1-2.4,0.1c-0.8,0.1-1.6,0.1-2.2,0.2c-0.7,0.1-1,0.1-1.1,0.1c0.3,0,0.8-0.1,1.5-0.1
			c0.7,0,1.5-0.1,2.3-0.1c0.8,0,1.5-0.1,2.2-0.1C62,64.4,62.4,64.4,62.6,64.4z"/>
	</g>
	<g>
		<g>
			<path class="st1" d="M70.2,65.2c-1.1-0.5-2.2-0.5-3.4-0.5c-0.5,0,0.3,0.3,0.4,0.3c0.5,0.2,1.1,0.3,1.7,0.2c0.1,0,0.2,0,0.3,0
				c0.6,0,0.2-0.1-1.1-0.3c0.5,0.2,1.1,0.3,1.7,0.4C69.9,65.4,70.7,65.4,70.2,65.2L70.2,65.2z"/>
		</g>
	</g>
	<g>
		<g>
			<path class="st1" d="M69.1,65c-4.4-0.9-8.6-0.5-13.1-0.5c-0.8,0-0.1,0.8,0.4,0.8c4.4-0.1,8.4-0.5,12.8,0.4
				C70,65.9,69.7,65.1,69.1,65L69.1,65z"/>
		</g>
	</g>
	<g>
		<g>
			<path class="st1" d="M45.9,66.6c1,0.1,1.8-0.2,2.8-0.5c0.2-0.1,1.1-0.5,0.4-0.5c-0.7,0-1.3,0.1-1.9,0.5c0,0-0.2,0.1-0.2,0.2
				c0.3,0.6,1.5,0.2,2,0c2.2-0.5,4.5-0.7,6.7-1c0.2-0.2,0.4-0.4,0.6-0.6c-1.9,0.3-3.9,0-5.7,0.8c0,0-0.5,0.3-0.3,0.3
				c0.8,0.3,1.7,0,2.5,0c0.9,0,1.6,0,2.4-0.4c0.9-0.4-0.5-0.3-0.8-0.2c-0.1,0.1-2.5,0.1-2.7,0c-0.1,0.1-0.2,0.2-0.3,0.3
				c1-0.4,3.1-0.2,4.2-0.4c0.4,0,1.6-0.7,0.6-0.6c-1.4,0.2-2.9,0.2-4.3,0.4c-0.7,0.1-1.3,0.2-1.9,0.4c-0.5,0.1-1.7,0.6-2,0.6
				c0.1-0.2,0.3-0.3,0.4-0.5c-0.3,0.1-1.2,0.4-1.5,0.4C46.8,66,45.6,66.5,45.9,66.6L45.9,66.6z"/>
		</g>
	</g>
	<g>
		<g>
			<path class="st1" d="M48.2,66.4c3.1-0.6,6.6-0.9,9.8-0.9c0.6,0,1.5-0.9,0.5-0.9c-3.4,0-6.8,0.3-10.1,0.9
				C47.7,65.6,47.2,66.6,48.2,66.4L48.2,66.4z"/>
		</g>
	</g>
</g>
<g>
</g>
<g>
</g>
<g>
</g>
<g>
</g>
<g>
</g>
<g>
</g>
<g>
</g>
<g>
</g>
<g>
</g>
<g>
</g>
<g>
</g>
<g>
</g>
<g>
</g>
<g>
</g>
<g>
</g>
</svg>
